<svg xmlns:xlink="http://www.w3.org/1999/xlink">

    <symbol fill="none" viewBox="0 0 67 64" id="play" xmlns="http://www.w3.org/2000/svg">
        <g filter="url(#aa)">
            <path fill="#fff" d="m3.381 33.397-.283-1.845C.658 15.62-.563 7.654 4.026 3.32 8.616-1.013 16.31.84 31.7 4.545l2.035.49c21.007 5.058 31.51 7.587 33.051 15.019 1.541 7.431-7.06 14.08-24.26 27.376l-1.753 1.355c-13.98 10.808-20.972 16.212-27.15 13.67-6.18-2.543-7.534-11.382-10.242-29.058Z"/>
        </g>
        <defs>
            <filter id="aa" width="66.038" height="62.264" x=".925" y=".811" color-interpolation-filters="sRGB" filterUnits="userSpaceOnUse">
                <feFlood flood-opacity="0" result="BackgroundImageFix"/>
                <feBlend in="SourceGraphic" in2="BackgroundImageFix" result="shape"/>
                <feColorMatrix in="SourceAlpha" result="hardAlpha" values="0 0 0 0 0 0 0 0 0 0 0 0 0 0 0 0 0 0 127 0"/>
                <feOffset dy="-6"/>
                <feComposite in2="hardAlpha" k2="-1" k3="1" operator="arithmetic"/>
                <feColorMatrix values="0 0 0 0 0.141176 0 0 0 0 0.188235 0 0 0 0 0.254902 0 0 0 1 0"/>
                <feBlend in2="shape" result="effect1_innerShadow_15_637"/>
            </filter>
        </defs>
    </symbol>

    <symbol fill="none" viewBox="0 0 41 39" id="back" xmlns="http://www.w3.org/2000/svg">
        <path fill="#fff" d="M0 19.5 19.02.5v12.244C26.348 12.744 41 17.896 41 38.5c0-11.147-14.653-13.37-21.98-13.089V38.5L0 19.5Z"/>
    </symbol>

    <symbol fill="none" viewBox="0 0 38 32" id="modal" xmlns="http://www.w3.org/2000/svg">
        <path fill="#fff" d="M0 0h38v7H0zm0 13h38v6H0zm0 12h38v7H0z"/>
    </symbol>

    <symbol fill="none" viewBox="0 0 54 50" id="heart" xmlns="http://www.w3.org/2000/svg">
        <path fill="url(#a)" d="m26.667 49.467-3.867-3.52C9.067 33.493 0 25.253 0 15.2 0 6.96 6.453.533 14.667.533c4.64 0 9.093 2.16 12 5.547 2.906-3.387 7.36-5.547 12-5.547C46.88.533 53.333 6.96 53.333 15.2c0 10.053-9.066 18.293-22.8 30.747l-3.866 3.52Z"/>
        <defs>
            <linearGradient id="a" x1="26.667" x2="26.667" y1="8.567" y2="49.467" gradientUnits="userSpaceOnUse">
                <stop stop-color="#FE71FE"/>
                <stop offset="1" stop-color="#7199FF"/>
            </linearGradient>
        </defs>
    </symbol>

</svg>